<svg xmlns="http://www.w3.org/2000/svg" version="1.1" xmlns:xlink="http://www.w3.org/1999/xlink" xmlns:svgjs="http://svgjs.dev/svgjs" width="1440" height="560" preserveAspectRatio="none" viewBox="0 0 1440 560"><g mask="url(&quot;#SvgjsMask1000&quot;)" fill="none"><rect width="1440" height="560" x="0" y="0" fill="#0e2a47"></rect><circle r="4.99" cx="937.35" cy="547.77" filter="url(#SvgjsFilter1001)" fill="rgba(51, 121, 194, 0.58)"></circle><circle r="4.76" cx="635.98" cy="406.83" filter="url(#SvgjsFilter1001)" fill="rgba(51, 121, 194, 0.58)"></circle><circle r="7.525" cx="1020.255" cy="171.665" filter="url(#SvgjsFilter1001)" fill="rgba(51, 121, 194, 0.58)"></circle><circle r="5.6" cx="1281.83" cy="526.95" filter="url(#SvgjsFilter1001)" fill="rgba(51, 121, 194, 0.58)"></circle><circle r="6.055" cx="1234.565" cy="488.625" filter="url(#SvgjsFilter1001)" fill="rgba(51, 121, 194, 0.58)"></circle><circle r="9.205" cx="112.715" cy="29.674999999999997" filter="url(#SvgjsFilter1001)" fill="rgba(51, 121, 194, 0.58)"></circle><circle r="5.43" cx="150.32" cy="188.5" filter="url(#SvgjsFilter1001)" fill="rgba(51, 121, 194, 0.58)"></circle><circle r="6.155" cx="874.885" cy="509.68499999999995" filter="url(#SvgjsFilter1001)" fill="rgba(51, 121, 194, 0.58)"></circle><circle r="5.37" cx="866.69" cy="414.37" filter="url(#SvgjsFilter1001)" fill="rgba(51, 121, 194, 0.58)"></circle><circle r="5.995" cx="7.815" cy="81.97500000000001" filter="url(#SvgjsFilter1001)" fill="rgba(51, 121, 194, 0.58)"></circle><circle r="4.855" cx="412.175" cy="258.985" filter="url(#SvgjsFilter1001)" fill="rgba(51, 121, 194, 0.58)"></circle><circle r="7.865" cx="1432.515" cy="349.815" filter="url(#SvgjsFilter1001)" fill="rgba(51, 121, 194, 0.58)"></circle><circle r="6.725" cx="874.525" cy="496.70500000000004" filter="url(#SvgjsFilter1001)" fill="rgba(51, 121, 194, 0.58)"></circle><circle r="6.83" cx="1130.11" cy="377.81" filter="url(#SvgjsFilter1001)" fill="rgba(51, 121, 194, 0.58)"></circle><circle r="8.71" cx="773.32" cy="236.27" filter="url(#SvgjsFilter1001)" fill="rgba(51, 121, 194, 0.58)"></circle><circle r="8.195" cx="502.675" cy="245.64499999999998" filter="url(#SvgjsFilter1001)" fill="rgba(51, 121, 194, 0.58)"></circle><circle r="6.7" cx="1005.72" cy="297.78999999999996" filter="url(#SvgjsFilter1001)" fill="rgba(51, 121, 194, 0.58)"></circle><circle r="8.92" cx="673.8199999999999" cy="312.94" filter="url(#SvgjsFilter1001)" fill="rgba(51, 121, 194, 0.58)"></circle><circle r="8.725" cx="1393.935" cy="52.835" filter="url(#SvgjsFilter1001)" fill="rgba(51, 121, 194, 0.58)"></circle><circle r="7.465" cx="545.945" cy="525.6550000000001" filter="url(#SvgjsFilter1001)" fill="rgba(51, 121, 194, 0.58)"></circle><path d="M190.1 61.5L211.5 85.3 210.6 96.9 203.4 88.9C202.9 87.8 201.6 88 200.5 88.5 200 89.2 199.8 90.7 200.6 91.2L210.2 102.5 209.7 113.9 200.2 107.5 197.3 92.8C197.3 92.8 197.2 92.5 197.2 92.5 196.8 91.8 195.7 91.4 194.8 91.4 193.8 91.9 193.2 92.7 193.4 93.9L195.6 104.5 186.1 98 179.4 66.9C179.4 66.9 179.6 66.4 179.6 66.4 179.2 65.7 178.1 65.3 177.2 65.3 176 65.5 175.3 66.8 175.8 67.8L181.4 95 169.6 87.5 167.1 75.4C167.1 75.4 167.1 75.4 166.9 75 166.5 74.3 165.8 73.8 164.9 73.8 163.8 74.3 163 75.2 163.1 76.4L164.9 84.5 156.3 79C155.4 78.1 154.4 78.6 153.8 79.3 152.9 80.2 153.1 81.5 154.4 82.2L162.6 87.9 154.8 89.2C153.7 89.7 152.8 90.6 153.3 91.7 153.5 92.9 154.2 93.5 155.5 93.3L167.6 90.7 179.1 98.4 151.6 104.2C150.7 104.2 150 105.4 150.1 106.7 150.5 107.4 151.4 108.3 152.6 108.1L183.8 101.4 193.2 107.9 182.7 110C181.4 110.2 181.1 111.3 181.3 112.5 181.3 113.4 182.5 114.1 183.4 114.1L197.9 110.9 207.8 117.1 197.4 122.3 183.4 117.7C182.4 117.4 181.3 117.9 180.9 119 180.4 119.7 181.1 121.1 182.2 121.5L192.4 124.9 182 130.1 151.8 119.8C150.7 119.4 149.6 119.9 149.3 121 148.9 122.1 149.5 123.2 150.5 123.5L177 132.6 164.9 138.7 153.1 134.8C152 134.4 150.9 135 150.6 136 150.2 137.1 150.7 138.2 151.8 138.5L159.5 141.4 150.6 145.9C149.5 146.4 149.1 147.5 149.7 148.6 150.2 149.6 151.3 150 152.4 149.4L161.3 145 158.8 152.5C158.5 153.5 159 154.6 160.1 155S162.2 154.8 162.6 153.7L166.3 142.4 178.8 136.2 170.1 162.5C169.7 163.5 170.3 164.6 171.4 165 172.4 165.3 173.5 164.8 173.9 163.7L183.8 133.6 194.2 128.4 190.8 138.6C190.5 139.7 191 140.8 192.1 141.1 193.1 141.5 194.2 141 194.6 139.9L199.2 125.9 209.2 120.9 208.5 132 197.4 142C196.9 142.7 196.7 144.2 197.4 144.7 198.3 145.6 199.2 145.6 200.3 145.1L208.3 137.9 207.6 149 183.9 170.3C183 171.2 183 172.1 183.5 173.2 184.4 174.1 185.7 173.9 186.4 173.5L207.5 154.9 206.4 168.8 197.5 176.9C196.4 177.4 196.6 178.7 197.2 179.8 197.9 180.3 199.3 180.5 200.2 179.6L206.1 174.4 205.7 184.4C205.4 185.5 206.3 186.4 207.7 186.5 208.6 186.5 209.5 185.6 209.5 184.8L210.2 174.6 215.6 180.8C216.5 181.7 217.7 181.5 218.3 180.8 219.3 180.3 219.3 179.4 219 178.7 218.8 178.3 218.8 178.3 218.6 177.9L210.5 169 211.6 155.1 230.1 175.8C230.6 176.8 231.8 176.7 232.9 176.1 233.5 175.4 233.5 174.5 233.1 173.8 232.9 173.4 232.9 173.4 232.9 173.4L211.8 149.1 212.5 138.1 219.6 146.1C220.5 147 221.4 147 222.5 146.4 223 145.7 223.4 144.7 223 143.9 222.8 143.6 222.8 143.6 222.7 143.2L212.6 132.2 213.3 121.1 222.6 127.1 225.9 141.6C226.1 142.9 227.3 143.6 228.2 143.6 229.3 143 230.2 142.1 229.6 141.1L227.5 130.5 237.1 136.4 243.6 168C243.6 168.9 244.9 169.7 245.8 169.7 246.9 169.1 247.8 168.2 247.6 167L242 139.8 253.4 147.5 255.8 159.3C256 160.5 257.2 161.2 258.3 160.7 259.2 160.7 260.1 159.8 259.9 158.5L258.1 150.5 266.7 156C267.4 156.6 268.7 156.4 269.6 155.5 269.7 154.9 269.7 154 269.4 153.3 269.4 153.3 269.2 153 269 152.6L260.4 147.1 268.5 145.3C269.4 145.3 270.1 144 270.1 143.1 269.9 142.8 269.9 142.8 269.9 142.8 269.3 141.7 268.3 141.3 267.6 141.7L255.8 144.1 243.9 136.6 271.5 130.8C272.5 130.2 273.1 129.5 272.9 128.3 272.9 128.3 272.7 127.9 272.7 127.9 272.4 127.2 271.6 126.7 270.4 126.9L239.1 133.2 229.8 127.1 240.3 124.9C241.4 124.4 242.3 123.5 241.8 122.4 242.1 122.3 241.9 121.9 241.9 121.9 241.6 121.2 240.5 120.8 239.6 120.8L225.1 124.1 215.6 117.7 225.6 112.6 239.6 117.3C240.7 117.6 242.1 116.9 242.5 115.8 242.5 114.9 241.9 113.8 241.2 113.3L230.6 110.1 241 104.9 271.1 114.9C272.2 115.2 273.2 114.7 273.6 113.6 273.9 112.5 273.4 111.5 272.3 111.1L246 102.4 258.5 96.1 269.8 99.8C270.9 100.2 271.9 99.7 272.3 98.6S272.1 96.4 271 96.1L263.5 93.6 272.5 89.1C273.5 88.6 273.9 87.5 273.3 86.4 272.8 85.3 271.7 85 270.7 85.5L261.7 90 264 82.1C264.2 81.6 264.4 81.1 264.2 80.7 264 80.4 263.3 79.8 262.8 79.6 261.7 79.3 260.6 79.8 260.3 80.9L256.7 92.5 244.2 98.8 252.7 72.1C252.9 71.6 253.1 71.1 252.9 70.7 252.7 70.4 252 69.8 251.5 69.6 250.4 69.3 249.3 69.8 249 70.9L239.2 101.3 228.8 106.5 232.6 96.2C232.8 95.6 232.4 94.9 232.2 94.5 232 94.2 231.9 93.8 231.3 93.7 230.2 93.3 228.8 94 228.8 94.9L223.8 109.1 213.8 114.1 214.3 102.6 225.6 93C226.1 92.2 226.5 91.2 226.1 90.4 226 90.1 226 90.1 225.6 90.3 225.1 89.2 223.6 89 222.7 89.9L214.7 97.1 215.2 85.6 239.5 64.5C240 63.8 240 62.9 239.7 62.2 239.5 61.8 239.5 61.8 239.5 61.8 238.6 60.9 237.5 60.5 236.6 61.4L215.6 80.1 216.6 66.1 225.5 58.1C226.4 57.2 226.4 56.3 226.1 55.6 226.1 55.6 225.9 55.2 225.9 55.2 225 54.3 223.7 54.5 223 54.9L216.9 60.6 217.6 50.4C217.5 50 217.3 49.7 217.1 49.3 216.9 49 216.2 48.4 215.7 48.3 214.4 48.4 213.3 49 213.5 50.2L212.8 60.4 207.5 54.2C206.6 53.3 205.3 53.5 204.6 53.8 203.7 54.7 203.9 56 204.4 57L212.5 66 211.8 79.7 193.3 59C192.4 58.1 191 58 190.5 58.7 189.6 59.6 189.2 60.6 190.1 61.5Z" fill="rgba(51, 121, 194, 0.58)"></path><path d="M346.1 338.1L361.6 350.9 349.2 356.1C347.8 356.5 346.9 358.3 347.3 360.3 348.3 361.8 350.1 362.7 351.5 362.3L368 355.7 382.4 367.6 348.7 380.6C346.6 381.6 345.7 383.4 346.7 384.8 347.1 386.8 348.9 387.8 351 386.8L388.1 372.4 401.4 382.8 395.5 421.4 381.7 427.1 349 400.1C348.3 400 347.7 399.9 347.1 399.8 346.4 399.7 345.1 400.1 344.3 400.7 342.8 402.4 343.1 404.4 344.9 405.3L374.8 429.9 357.7 436.4 342 424.3C342.1 423.6 341.5 423.5 340.9 423.4 339.6 423.2 338.2 423.7 337.4 424.9 336.6 426 336.9 428 338 429.5L350.8 439.2 329.4 447.6C328 448 327.1 449.8 327.5 451.8 328.5 453.3 330.3 454.2 331.7 453.8L351.7 445.8 349.7 459.1C349.4 461 351.1 462.5 352.3 462.7 354.2 463 356.3 462.1 356.6 460.2L359.2 443.1 376.4 436.6 371 472.1C370.7 474 371.8 475.4 373.7 475.7 375.6 476 377 474.9 377.3 473L383.3 433.8 397.8 427.6 428.4 452.3 426.2 466.9 388.3 481.8C386.3 482.2 385.3 484.6 386.3 486.1 386.7 488.1 388.6 488.3 390.6 488L425 474.5 422.2 492.8 405 499.3C403.7 499.7 402.6 502.1 403.1 503.5S406 505.9 408 505.5L421 500.4 417.7 522.6C417.4 524.5 419.1 526 421 526.3 422.2 526.5 424.3 525.5 424.6 523.6L428 501.5 439.6 510.4C440.8 511.2 442.7 511.5 444.2 509.8 445 508.6 444.8 506 443.6 505.2L429.2 493.9 432 475.5 460.8 498.7C462.6 499.6 464.5 499.9 466 498.2 466.9 497.1 466.6 494.4 465.5 493.6L433.1 468 435.3 453.4 471.9 438.9 483.9 449.2 477.9 488.4C477.6 490.3 478.7 491.7 480.6 492 482.5 492.3 484.6 491.3 484.9 489.4L490.3 454 504.7 465.3 502.1 482.4C501.8 484.3 502.9 485.7 504.8 486 506.7 486.3 508.2 485.2 508.5 483.3L510.5 470.1 527.2 483.6C528.4 484.4 531 484.2 531.8 483 532.7 481.2 533 479.3 531.2 478.4L514 464.1 528.4 458.5C529.9 457.5 530.8 455.7 530.4 454.3 529.9 453 528.8 452.1 527.5 451.9 527.5 451.9 526.9 451.8 526.1 452.4L507.6 459.3 493.1 448 529 433.4C531 433 531.9 431.2 531 429.2 530.4 428.4 529.9 427.7 528.6 427.5 528 427.4 527.4 427.3 526.7 427.2L487.4 443.2 475.9 433.7 481.8 395.1 497.6 389.1 528.8 413.9C530.5 415.5 532.5 415.1 533.4 413.3 534.8 412.3 534.5 410.3 532.8 408.7L504.5 386.3 521.8 379.2 535.6 390.4C536.8 391.2 538.8 390.9 540.2 389.8 541.1 388 541.4 386.1 539.6 385.2L529.3 376.5 547.9 368.9C549.9 368.6 550.2 366.7 549.9 364.7 549.3 364 548.2 363.2 546.9 363 546.9 363 546.3 362.9 545.6 362.8L525.6 370.7 528.1 354.9C528.3 353.6 527.3 351.5 525.4 351.3 523.5 351 521.9 352.7 521.7 353.9L518.7 373.6 501.5 380.6 507.4 342C507.7 340.1 506 338.6 504.1 338.3S500.7 339.1 500.4 341L493.9 383.4 479.5 388.9 449 364.2 451.5 347.7 490 332.9C491.4 331.8 492.4 330 492 328 491.5 327.3 490.3 326.5 489.1 326.3 488.4 326.2 487.8 326.1 487.1 326.6L452.6 340.2 455.4 321.8 472.7 314.7C474.1 314.3 475 312.5 474.6 310.5 473.6 309 471.8 308.1 470.4 308.6L456.6 314.2 459.7 294C459.9 292.7 458.3 290.5 457 290.3 455.1 290 452.9 291.6 452.7 292.9L449.6 313.2 438.8 303.7C438.1 303.6 437.5 303.5 436.9 303.4 435.6 303.2 434.2 303.7 433.5 304.2 432.6 306 432.9 308 434 309.5L448.5 320.7 445.7 339.1 416.8 315.9C415.1 314.4 413.1 314.7 412.3 315.9 410.8 317.6 411.1 319.6 412.2 321L444.5 346.7 442 363.1 405.5 377.6 393.3 368 399.8 325.6C400.1 323.7 399 322.3 397.1 322 395.2 321.7 393.8 322.8 393.5 324.6L387.6 363.2 373.2 351.3 376.2 331.7C376.4 330.5 374.8 328.3 372.9 328 371 327.7 369.5 329.4 369.3 330.7L366.8 346.5 350.1 332.9C349.5 332.8 349.5 332.8 348.9 332.7 347.6 332.5 346.2 333 345.5 333.5 344.6 335.3 344.9 337.3 346.1 338.1ZM440.8 370.7L444.9 369.4 447.8 371.8 472.6 391.8 475.5 394.1 474.9 397.9 470.1 428.9 469.6 432.7 466.1 434.1 436.5 445.8 433 447.2 429.5 444.7 405.4 424.9 401.9 422.4 402.5 418.6 407.2 387.6 407.8 383.8 411.8 382.5 440.8 370.7Z" fill="rgba(51, 121, 194, 0.58)"></path><path d="M1416 500.9L1365.2 505.7 1351.1 493.5 1368.2 491.9C1370.1 492.3 1371.1 490.5 1371.4 488.6 1371 487.2 1369.3 485.6 1367.9 486L1344.3 487.8 1330 476.2 1347.3 470.1 1368.9 480.4C1368.9 480.4 1369.6 480.5 1369.6 480.5 1370.8 480.7 1372.3 479.7 1373.1 478.5 1373.5 476.6 1373.1 475.2 1371.3 474.3L1355.6 467 1372.9 460.9 1419.3 481.9C1419.3 481.9 1419.8 482.7 1419.8 482.7 1421.1 482.9 1422.6 481.9 1423.4 480.7 1424.4 478.9 1423.5 476.8 1421.6 476.5L1381.3 457.8 1402.2 449.7 1420.2 458.1C1420.2 458.1 1420.2 458.1 1420.8 458.2 1422.1 458.4 1423.5 458 1424.3 456.8 1424.6 454.9 1424.3 452.9 1422.6 452L1410.5 446.6 1425.8 440.8C1427.8 440.5 1428.1 438.7 1427.7 437.3 1427.4 435.3 1425.6 434.3 1423.5 435.3L1408.3 440.4 1414.2 429.1C1414.5 427.2 1414.2 425.2 1412.3 424.9 1410.5 423.9 1409.2 424.3 1408.2 426.1L1399.9 444.2 1379.1 451.6 1397.9 410.7C1398.7 409.5 1397.8 407.4 1396 406.5 1394.7 406.2 1392.7 406.6 1391.8 408.3L1370.8 454.7 1353.5 460.8 1360.7 445.2C1361.7 443.4 1360.6 441.9 1358.9 441 1357.7 440.1 1355.6 441 1354.8 442.2L1345.1 463.9 1327.7 470.6 1330.9 452.4 1350.1 438.8C1351.6 437.8 1352 435.9 1350.9 434.4 1350.5 433 1348 432.6 1346.5 433.6L1332.4 443.5 1335.6 425.2 1377.7 396.1C1379.1 395.1 1379.5 393.2 1378.4 391.7 1377.4 390.3 1375.5 389.9 1374 391L1337.1 416.4 1340.8 395 1357.1 383.5C1358.6 382.5 1358.9 380.6 1357.9 379.1 1356.8 377.6 1354.9 377.3 1353.5 378.3L1342.5 385.5 1345.2 369.7C1345.5 367.9 1344.5 366.4 1342.6 366 1340.7 365.7 1339.2 366.8 1338.9 368.7L1336.2 384.4 1328.9 374.1C1327.8 372.6 1325.9 372.3 1324.5 373.3S1322.7 376.2 1323.7 377.7L1334.6 393.2 1330.8 415.3 1305.3 379.1C1304.2 377.6 1302.3 377.3 1300.9 378.3 1299.4 379.3 1299.1 381.2 1300.1 382.7L1329.3 424.1 1326.1 442.4 1316.2 428.4C1315.2 426.9 1313.3 426.6 1311.8 427.6 1310.3 428.7 1310 430.6 1311 432L1324.6 451.3 1321.5 468.9 1307.9 457.5 1305.6 433.7C1305.2 432.3 1303.5 430.7 1302.1 431.1 1300.1 431.4 1299.3 432.6 1298.9 434.5L1300.5 451.6 1286.9 440.2 1282.1 389.3C1281.8 387.3 1280.6 386.5 1278.7 386.2 1276.7 386.5 1275.8 388.2 1275.5 389.5L1279.5 434.4 1262.5 419.7 1260.6 400.6C1261 398.7 1259.2 397.7 1257.3 397.4 1255.9 397.8 1254.3 399.5 1254.6 401.5L1255.7 414 1243.1 404C1242.1 402.6 1240.1 402.9 1238.5 404.5 1237.7 405.7 1238 407.7 1239.1 408.5L1251.6 419.1 1238.4 420.1C1236.4 420.4 1235.5 422.2 1235.9 423.6 1235.5 425.5 1236.7 426.3 1238 426.5 1238.6 426.6 1238.6 426.6 1239.2 426.7L1258.4 424.9 1275.3 439.5 1231.1 443.5C1229.2 443.2 1228.3 445 1227.9 446.9 1228.3 448.2 1229.5 449.1 1230.8 449.3 1231.4 449.4 1231.4 449.4 1231.4 449.4L1282.8 445.3 1296.4 456.8 1279.2 458.3C1277.2 458.6 1276.4 459.8 1276 461.7 1276.4 463.1 1277.5 464.5 1278.7 464.8 1279.4 464.9 1279.4 464.9 1280 465L1303.8 462.6 1317.4 474.1 1300.7 480.3 1279 470.7C1277.2 469.7 1275.1 470.6 1274.3 471.8 1274 473.7 1274.3 475.7 1276.2 476L1291.8 483.3 1275 490.1 1228.1 468.3C1227 467.5 1224.9 468.4 1224 469.6 1223.7 471.5 1224 473.5 1225.8 474.4L1266.1 493.1 1245.3 500.5 1227.9 492.3C1226.1 491.4 1224 492.3 1223.6 494.2 1222.8 495.3 1223.1 497.3 1224.9 498.3L1236.9 503.6 1221.7 509.4C1220.3 509.9 1219.3 511.6 1219.6 513.6 1220.1 514.4 1221.3 515.2 1222.6 515.4 1222.6 515.4 1223.2 515.5 1223.8 515.7L1239.1 509.9 1233.8 521.9C1232.9 523.1 1233.9 525.2 1235 526 1235.6 526.1 1235.6 526.1 1235.6 526.1 1237.5 526.5 1239 525.4 1239.2 524.2L1247.4 506.8 1268.3 498.7 1249.6 539.6C1249.2 541.5 1249.6 542.9 1251.4 543.8 1251.4 543.8 1252.1 543.9 1252.1 543.9 1253.3 544.1 1254.7 543.7 1255.6 542L1277.3 495.7 1294 489.5 1286.7 505.1C1286.4 507 1286.7 509 1288.6 509.3 1288.5 510 1289.1 510.1 1289.1 510.1 1290.4 510.3 1291.8 509.2 1292.7 508.1L1302.3 486.4 1319.6 480.3 1316.5 497.9 1297.3 511.5C1295.8 512.5 1295.4 515.1 1296.4 516.5 1297.6 517.4 1299.5 517.7 1300.8 517.3L1315 506.8 1311.8 525 1270.4 554.2C1268.9 555.3 1268.6 557.2 1269.6 558.7 1270.7 560.1 1272.6 560.5 1274.1 559.4L1310.3 533.9 1306.5 555.9 1290.9 566.9C1289.5 567.9 1289.1 569.8 1290.2 571.3S1293.1 573.1 1294.6 572.1L1305 564.8 1302.2 580.5C1301.9 582.4 1302.9 583.9 1304.8 584.2 1306.7 584.6 1308.2 583.5 1308.5 581.6L1311.3 565.9 1319.2 576.3C1319.7 577.1 1320.2 577.8 1320.9 577.9 1321.5 578 1322.9 577.6 1323.6 577.1 1325.1 576.1 1325.4 574.2 1324.4 572.7L1312.8 557 1316.6 535 1342.8 571.3C1343.3 572.1 1343.8 572.8 1344.5 572.9 1345.1 573 1346.5 572.6 1347.2 572.1 1348.7 571 1349 569.2 1348 567.7L1318.1 526.1 1321.3 507.9 1331.1 522.5C1331.6 523.3 1332.9 523.5 1333.5 523.6 1334.1 523.7 1334.8 523.8 1335.5 523.3 1337 522.3 1337.4 519.7 1336.3 518.9L1322.8 499 1325.9 481.4 1340.1 492.9 1341.9 516.6C1342.3 518 1343.3 519.5 1344.6 519.7 1345.2 519.8 1345.2 519.8 1345.3 519.2 1347.2 519.5 1348.8 517.8 1348.5 515.8L1346.9 498.6 1361.2 510.2 1365.3 561.6C1365.7 562.9 1366.8 563.8 1368.1 564 1368.7 564.1 1368.7 564.1 1368.7 564.1 1370.7 563.8 1372.2 562.8 1371.9 560.8L1368 515.9 1384.9 530.6 1386.8 549.7C1387.1 551.7 1388.3 552.6 1389.5 552.8 1389.5 552.8 1390.2 552.9 1390.2 552.9 1392.2 552.6 1393.1 550.8 1393.3 549.5L1391.7 536.3 1404.2 546.9C1404.8 547 1405.4 547.1 1406.1 547.2 1406.7 547.3 1408.1 546.9 1408.8 546.4 1409.8 544.6 1410.1 542.7 1408.3 541.7L1395.9 531.1 1409 530.2C1411 529.9 1412 528.1 1412.2 526.8 1411.9 524.8 1410.1 523.9 1408.2 523.5L1389.1 525.4 1372 511.4 1416.2 507.4C1418.2 507.1 1419.8 505.4 1419.4 504 1419.1 502 1418 500.6 1416 500.9Z" fill="rgba(51, 121, 194, 0.58)"></path><path d="M72.4 428.3L104.4 420 112.4 424.4 112.3 444.8 104.3 449.6 72.4 440.7C72 440.7 72 440.7 71.6 440.7 70.8 440.7 70 441.1 69.5 442.3 69.5 443.5 69.9 444.3 71.1 444.7L99.1 452.4 86.7 459.6 74.3 456.3C74.3 456.3 73.9 456.3 73.9 456.3 73.1 456.3 72.3 456.7 71.9 457.9 71.5 458.7 72.3 459.9 73.5 460.3L81.5 462.8 72.3 467.9C71.5 468.3 71.1 469.5 71.5 470.7S73.5 471.9 74.7 471.5L83.5 466.4 81.5 474.4C81.1 475.6 81.9 476.8 83.1 477.2 83.9 477.2 85.1 476.8 85.5 475.6L88.7 463.2 101.5 456 93.9 484C93.5 485.2 94.3 486.4 95.1 486.8 96.3 486.8 97.5 486.4 97.9 485.2L106.3 453.2 114.7 448.4 131.9 458.4 131.9 468 108.7 491.6C107.9 492.4 107.9 493.6 108.7 494.4S110.7 495.2 111.5 494.4L131.9 473.6 131.9 488.4 123.1 497.2C122.3 498 122.3 499.2 123.1 500.4S125.1 501.2 125.9 500.4L131.9 494 131.9 504.8C131.9 506 133.1 506.8 134.3 506.8 135.5 506.8 136.3 506 136.3 504.8L136.3 494 142.3 500C143.1 501.2 144.3 501.2 145.1 500 145.9 499.2 145.9 498 145.1 497.2L136.3 488.4 136.3 473.6 156.7 494.5C157.5 495.3 159.1 495.3 159.9 494.5S160.7 492.5 159.9 491.7L136.3 468 136.3 458.4 153.9 448.5 161.9 453.3 170.3 485.3C170.7 486.5 171.9 486.9 173.1 486.9 174.3 486.5 174.7 485.3 174.7 484.1L167.1 456.1 179.5 463.3 182.7 475.7C183.1 476.9 184.3 477.3 185.5 477.3 186.3 476.9 187.1 475.7 186.7 474.5L184.7 466.5 193.9 471.7C194.7 472.1 195.9 471.7 196.7 470.9 197.1 469.7 196.7 468.5 195.9 468.1L186.7 462.9 195.1 460.5C195.9 460.1 196.7 458.9 196.3 458.1 196.3 456.9 195.5 456.5 194.3 456.5 194.3 456.5 193.9 456.5 193.9 456.5L181.5 459.7 169.1 452.5 197.1 444.9C198.3 444.5 199.1 443.7 198.7 442.5 198.4 441.3 197.6 440.9 196.8 440.9 196.4 440.9 196.4 440.9 196.4 440.9L163.9 449.7 155.9 444.9 156 424.5 164 420.1 196.4 428.5C197.2 428.9 198.4 428.1 198.8 427.3 199.2 426.1 198.4 424.9 197.2 424.5L169.2 416.9 181.6 409.7 194 412.9C195.2 413.3 196.4 412.9 196.4 411.7 196.8 410.5 196 409.3 195.2 408.9L186.8 406.9 196 401.7C196.8 400.9 197.2 399.7 196.8 398.5 196.4 398.1 195.6 397.7 194.8 397.7 194.4 397.7 194.4 397.7 194 398.1L184.8 403.3 186.8 394.9C187.2 393.7 186.4 392.9 185.6 392.5 185.2 392.5 185.2 392.5 184.8 392.5 184 392.5 183.2 392.9 182.8 393.7L179.6 406.1 167.2 413.3 174.8 385.3C174.8 384.1 174.4 382.9 173.2 382.9 172.8 382.5 172.8 382.5 172.4 382.5 171.6 382.5 170.8 383.3 170.4 384.1L162 416.5 154 420.9 136.4 410.8 136.4 401.6 160 378.1C160.8 377.3 160.8 375.7 160 374.9S157.6 374.1 156.8 374.9L136.4 395.6 136.4 381.2 145.2 372C146 371.2 146 370 145.3 369.2 144.5 368.4 143.3 368.4 142.5 369.2L136.4 375.2 136.5 364.4C136.5 363.6 135.7 362.4 134.5 362.4 133.3 362.4 132.1 363.6 132.1 364.4L132 375.2 126.1 369.2C125.7 368.8 125.3 368.4 124.9 368.4 124.1 368.4 123.7 368.8 123.3 369.2 122.4 370 122.4 371.2 123.2 372L132 381.2 132 395.6 111.6 374.8C111.2 374.4 110.8 374.4 110 374.4 109.6 374.4 109.2 374.4 108.8 374.8 108 375.6 108 377.2 108.8 378L132 401.6 132 410.8 114.8 420.8 106.4 416.4 98 384C97.6 383.2 96.8 382.4 96 382.4 95.6 382.4 95.6 382.4 95.6 382.8 94.4 382.8 93.6 384 94 385.2L101.6 413.2 88.8 406 85.6 393.6C85.2 392.8 84.4 392.4 83.6 392.4 83.6 392.4 83.2 392.4 83.2 392.4 82 392.4 81.2 393.6 81.6 394.8L84 403.2 74.8 397.9C74.4 397.5 74 397.5 73.6 397.5 72.8 397.5 72 397.9 72 398.3 71.2 399.5 71.6 400.7 72.4 401.5L81.6 406.8 73.6 408.7C72.4 409.1 71.6 410.3 72 411.5 72.4 412.3 73.6 413.1 74.4 412.7L86.8 409.6 99.2 416.8 71.2 424.3C70 424.7 69.6 425.9 69.6 427.1 70 427.9 71.2 428.7 72.4 428.3ZM116.7 442.4L116.8 426.8 116.8 424.4 118.8 423.2 132 415.6 134.4 414.4 136.4 415.6 149.6 423.3 151.6 424.5 151.6 426.9 151.5 442.5 151.5 444.9 149.5 446.1 136.3 453.6 134.3 454.8 131.9 453.6 118.7 446 116.7 444.8 116.7 442.4Z" fill="rgba(51, 121, 194, 0.58)"></path><path d="M1128.9 335.8L1095.5 303.7 1094.9 290.9 1119.3 276 1130.9 282.1 1143.7 326.8C1144 327.3 1144 327.3 1144.3 327.7 1144.8 328.7 1145.9 329.4 1147.6 329 1149.1 328.1 1149.7 327 1149.3 325.3L1138 286.3 1155.7 295.9 1160.9 313C1160.9 313 1161.2 313.5 1161.2 313.5 1161.8 314.5 1162.8 315.1 1164.5 314.7 1165.8 314.6 1166.6 312.8 1166.2 311.1L1163.3 299.8 1176.2 307C1177.3 307.6 1179 307.3 1180.1 305.9S1180.1 302.6 1178.8 301.5L1166.1 294.8 1177.2 291.3C1178.9 290.9 1179.7 289.1 1179.3 287.4 1178.8 286.4 1177.4 285.3 1175.7 285.7L1158.5 290.9 1140.6 280.8 1179.6 269.5C1181.3 269.1 1182.2 267.3 1182.1 266 1181.2 264.6 1179.9 263.5 1178.1 263.8L1133.8 277.1 1121.9 270.5 1121.3 242.7 1132.8 235.7 1177.9 246.3C1179.5 246.6 1180.9 245.8 1181.3 244.2S1180.8 241.3 1179.2 240.9L1139.5 231.6 1157.2 220.9 1174.1 225C1175.7 225.4 1177.1 224.5 1178 222.6S1177.5 219.7 1175.9 219.3L1163.9 216.8 1176.8 208.9C1178.3 208 1178.3 206 1177.5 204.6 1176.6 203.2 1175.1 202.8 1173.6 203.7L1160.7 211.5 1163.5 200C1164.4 198.1 1163.5 196.7 1161.5 196.6 1159.9 196.3 1158.5 197.1 1158.1 198.7L1154 215.6 1136.3 226.4 1146.3 186.8C1146.7 185.3 1145.5 183.4 1144 183S1141 183.5 1140.7 185L1129.6 230.4 1118.1 237.4 1093.4 223.7 1093.3 210.6 1125.4 177.3C1126.6 175.9 1126.2 174.2 1125.3 172.8 1124 171.6 1122.2 172 1120.8 172.9L1092.8 202.4 1092.4 182.3 1104.9 169.4C1106.1 168.1 1105.7 166.3 1104.8 164.9 1103.7 164.2 1101.7 164.2 1100.6 165.5L1092.5 173.7 1092 158.9C1091.9 157.7 1090.5 156.6 1089 156.2 1087.3 156.6 1086.1 157.9 1086.2 159.2L1086.7 174 1077.7 165.7C1076.7 165 1074.6 164.9 1074 166 1072.5 166.8 1072.7 168.1 1073.5 169.5 1073.5 169.5 1073.8 170 1073.8 170L1086.7 182.5 1087.1 202.6 1057.6 174.6C1056.3 173.5 1054.7 173.1 1053.6 174.5 1052.4 175.8 1052.5 177.1 1053.1 178 1053.4 178.5 1053.4 178.5 1053.4 178.5L1087.5 210.8 1087.6 223.9 1063.2 238.7 1052.1 232.4 1038.6 187.5C1038.5 186.3 1036.6 185.4 1035.4 185.5 1033.7 185.9 1032.8 187.8 1033.2 189.5L1044.5 228.5 1026.9 218.9 1021.7 201.7C1021.3 200 1019.9 198.9 1018.5 199.8 1016.8 200.1 1015.9 202 1016 203.2L1019.7 214.7 1006.8 207.5C1005.3 207.1 1003.6 207.5 1002.4 208.9 1002.2 209.7 1002.3 210.9 1002.9 211.9 1003.2 212.3 1003.2 212.3 1004 212.5L1016.9 219.7 1005.4 223.5C1003.7 223.9 1003.3 225.4 1003.4 226.6 1003.7 227.1 1003.7 227.1 1004 227.6 1004.6 228.6 1005.6 229.2 1006.9 229.1L1024 223.9 1041.7 233.5 1002.6 244.8C1001.2 245.7 1000.1 247 1000.9 248.5 1000.8 249.2 1000.8 249.2 1001 249.7 1001.6 250.7 1003.2 251 1004.4 250.9L1049.3 237.4 1060.4 243.8 1061.2 272.1 1050.2 278.8 1004.8 267.7C1003.3 267.4 1001.4 268.5 1001 270.1S1001.8 273.5 1003.3 273.9L1043 283.2 1025.8 293.6 1008.4 289.8C1006.9 289.4 1005.4 290.3 1005.1 291.8 1004.7 293.4 1005.6 294.8 1007.1 295.2L1018.6 298 1005.7 305.9C1004.8 306.4 1003.9 308.3 1004.8 309.7 1005.7 311.1 1008 311.7 1008.9 311.1L1021.8 303.3 1019 314.8C1018.8 315.6 1018.7 316.3 1019 316.8 1019.5 317.8 1020.3 318 1021.1 318.2 1022.6 318.5 1024 317.7 1024.4 316.1L1029 298.9 1046.2 288.4 1036.2 328C1036 328.7 1036.3 329.2 1036.9 330.2 1037.2 330.6 1037.5 331.1 1038.3 331.3 1039.8 331.7 1041.7 330.5 1042.1 329L1053.4 284 1064.4 277.3 1088.9 290.6 1089.7 303.9 1057.1 337.5C1056.5 338.6 1056.1 340.1 1056.7 341.1 1057 341.6 1057 341.6 1057.4 341.3 1058.3 342.7 1060.3 342.8 1061.5 341.4L1089.4 312 1090.1 332.5 1077.6 345.4C1077 346.4 1077.1 347.7 1077.6 348.6 1077.6 348.6 1077.9 349.1 1077.9 349.1 1078.8 350.5 1080.8 350.6 1082 349.3L1090.3 340.3 1090.7 355.1C1090.6 355.8 1090.9 356.3 1091.1 356.8 1091.7 357.8 1092.8 358.4 1093.3 358.1 1095.3 358.2 1096.4 356.9 1096.8 355.3L1096.3 340.5 1104.5 348.6C1105.9 349.8 1107.9 349.9 1109.1 348.5 1109.7 347.5 1109.8 345.4 1108.7 344.8L1095.9 332.3 1095.5 312.2 1124.9 340.2C1126.3 341.3 1128 340.9 1129.5 340 1130.1 339 1130.2 337 1128.9 335.8ZM1113.3 272.5L1094.6 283.9 1091.7 285.6 1088.9 284.1 1070.2 273.9 1067 271.9 1067 268.6 1066.4 247.3 1066.4 244 1069.3 242.3 1087.9 230.9 1090.8 229.2 1093.7 230.7 1112.4 240.9 1115.3 242.4 1115.6 246.2 1116.1 267.5 1116.1 270.8 1113.3 272.5Z" fill="rgba(51, 121, 194, 0.58)"></path><path d="M457.4 166.7L463.7 134.1 488.3 117.7 490.2 147.2 468.1 172C468.1 172 468 172.4 468 172.4 467.6 173.1 468 174.2 468.5 174.9 469.4 175.8 470.8 175.6 471.4 174.5L490.6 152.8 491.6 167.1 483.2 176.8C483.2 176.8 483 177.1 483 177.1 482.7 177.9 483 178.9 483.6 179.6 484.5 180.5 485.9 180.4 486.4 179.3L492.3 172.8 492.9 183.4C492.9 184.3 494.1 185.3 495 185.3 496.3 185.5 497 184.1 497 183.2L496.4 172.6 502.9 178.5C503.8 179.4 505.2 179.2 505.7 178.1 506.6 177.2 506.4 175.8 505.4 175.3L495.7 166.9 495.1 152.8 516.8 172C517.7 172.9 519.1 172.7 519.7 171.6 520.6 170.7 520.4 169.3 519.3 168.8L494.5 146.7 492.6 117.2 519.5 130.5 530.2 162.1C530.5 163.2 531.6 163.7 532.7 163.3 533.8 163 534.3 161.9 533.9 160.8L524.5 133 537.4 139.4 541.4 151.1C541.8 152.2 542.8 152.7 543.9 152.4 545 152 545.5 150.9 545.2 149.9L542.4 141.8 552.5 146.8C553.4 147.7 554.6 147 555.2 145.9 555.7 144.8 555.3 143.8 554.3 143.2L544.9 138.6 553 135.9C554 135.5 554.6 134.5 554.2 133.4S552.8 131.8 551.7 132.1L539.9 136.1 527 129.7 554.9 120.3C555.9 120 556.5 118.9 556.1 117.8 555.8 116.7 554.7 116.2 553.6 116.6L522 127.3 495.5 114.1 520.1 97.7 551.8 104.1C553 104.2 553.9 103.3 554.4 102.3 554.6 101 553.7 100.1 552.6 99.6L524.2 94 536.1 86.1 548.7 88.7C549.9 88.9 550.8 88 551.3 86.9 551.5 85.6 550.6 84.7 549.9 84.4L541.3 82.8 550 76.9C550.8 76.3 551.5 74.9 550.6 74 549.7 73.1 548.6 72.6 547.7 73.5L539 79.4 540.5 70.8C540.7 69.6 539.8 68.7 539.1 68.3 538.2 68.3 537.1 68.7 536.8 69.4 536.8 69.4 536.6 69.8 536.6 69.8L534 82.3 522 90.2 527.6 61.8C527.8 60.5 526.9 59.6 526.2 59.3 525.3 59.3 524.2 59.6 523.9 60.3 523.9 60.3 523.7 60.7 523.7 60.7L517.4 93.3 492.8 109.7 490.8 80.2 512.9 55.4C513.8 54.5 513.6 53 512.6 52.5 511.7 51.6 510.2 51.8 509.7 52.9L490.5 74.6 489.5 60.3 497.9 50.6C498.8 49.7 498.6 48.3 497.5 47.7 496.6 46.9 495.2 47 494.6 48.1L488.8 54.6 488.2 44C488.2 43.1 486.9 42.1 486 42.1 485.1 42.1 484.4 42.6 484.1 43.3 483.9 43.7 483.7 44 483.9 44.6L484.5 55.1 478 49.3C477.1 48.4 475.7 48.6 475.2 49.6 475.2 49.6 475 50 475 50 474.6 50.7 475 51.8 475.5 52.5L485.2 60.9 486.2 75.2 464.4 55.9C463.6 55 462.1 55.2 461.6 56.3 461.6 56.3 461.4 56.7 461.4 56.7 461.1 57.4 461.4 58.5 462 59.2L486.7 81.2 488.6 110.8 462.1 97.6 451.4 66C451.1 64.9 450 64.4 448.9 64.8 447.9 65.1 447.3 66.2 447.7 67.3L456.7 95 443.8 88.6 439.8 76.8C439.5 75.7 438.4 75.2 437.3 75.5S435.7 77 436.1 78.1L438.8 86.1 429.5 81.5C428.4 80.9 427.3 81.3 426.8 82.4 426.3 83.5 426.6 84.5 427.7 85.1L437 89.7 429 92.4C428.5 92.6 427.9 92.8 427.6 93.5S427.4 94.7 427.6 95.3C427.9 96.3 429 96.9 430.1 96.5L441.9 92.5 454.8 98.9 426.9 108.3C426.4 108.5 425.8 108.7 425.5 109.4 425.3 109.8 425.3 110.7 425.5 111.2 425.9 112.3 426.9 112.8 428 112.4L459.6 101.7 486.2 114.9 461.5 131.3 429 125C428.1 125 427 125.3 426.6 126 426.6 126 426.5 126.4 426.5 126.4 426.3 127.6 427.2 128.5 427.9 128.9L456.4 134.5 444.4 142.4 431.9 139.8C431 139.8 429.9 140.2 429.6 140.9 429.6 140.9 429.4 141.2 429.4 141.2 429.2 142.5 430.1 143.4 430.8 143.7L439.4 145.3 430.7 151.2C430.5 151.6 430 151.8 429.8 152.1 429.4 152.9 429.4 153.7 430 154.5 430.9 155.4 431.9 155.9 432.8 155L441.6 149 440 157.6C439.8 158.9 440.7 159.8 441.4 160.1 442.7 160.3 443.6 159.4 443.9 158.7L446.6 146.2 458.5 138.2 452.9 166.7C452.7 168 453.6 168.9 454.4 169.2 456 168.7 457.2 167.9 457.4 166.7Z" fill="rgba(51, 121, 194, 0.58)"></path><path d="M1002.1 428.8L1023.3 454.2 1022.8 463.3 1004.3 471.9 996.5 466.7 990.9 434C990.7 433.7 990.7 433.7 990.6 433.3 990.2 432.6 989.5 432 988.3 432.2 987.2 432.7 986.6 433.4 986.8 434.6L991.8 463.2 980 455 977.6 442.5C977.6 442.5 977.5 442.1 977.5 442.1 977.1 441.4 976.4 440.8 975.2 441 974.3 440.9 973.5 442.2 973.7 443.4L974.9 451.7 966.3 445.6C965.6 445 964.3 445.2 963.4 446S963.2 448.4 964 449.3L972.5 455 964.4 456.6C963.1 456.8 962.4 458 962.5 459.3 962.9 460 963.8 460.9 965 460.8L977.6 458.4 989.6 466.9 961 471.9C959.7 472.1 959 473.3 959 474.2 959.5 475.3 960.3 476.2 961.6 476.1L994.1 470.1 1002 475.6 1000.3 495.5 991.6 499.5 960.4 488.6C959.3 488.2 958.2 488.7 957.9 489.7S958 491.9 959 492.3L986.5 501.9 973.1 508.2 961.4 504C960.4 503.6 959.3 504.1 958.5 505.3S958.7 507.5 959.7 507.9L968.1 510.6 958.3 515.2C957.2 515.7 957 517.1 957.5 518.2 958 519.3 959.1 519.7 960.2 519.1L969.9 514.6 967.1 522.5C966.3 523.8 966.8 524.9 968.2 525.1 969.3 525.5 970.4 524.9 970.8 523.9L975 512.2 988.4 505.9 978.2 533.2C977.9 534.3 978.5 535.7 979.6 536.1S981.8 536 982.1 534.9L993.5 503.5 1002.2 499.4 1018.7 511.1 1017.8 520.4 992.4 541.6C991.4 542.5 991.6 543.7 992.1 544.8 993 545.7 994.2 545.6 995.3 545.1L1017.4 526.3 1016.2 540.6 1006.3 548.7C1005.4 549.6 1005.5 550.9 1006.1 552 1006.8 552.5 1008.2 552.7 1009.1 551.9L1015.5 546.6 1014.7 557.2C1014.7 558.1 1015.5 559 1016.6 559.4 1017.9 559.2 1018.8 558.4 1018.8 557.5L1019.6 546.9 1025.3 553.5C1026 554.1 1027.5 554.3 1028 553.6 1029.1 553.1 1029.1 552.2 1028.6 551.1 1028.6 551.1 1028.4 550.7 1028.4 550.7L1020.3 540.9 1021.5 526.6 1040.3 548.7C1041.2 549.6 1042.2 550 1043.2 549.1 1044.1 548.3 1044.1 547.4 1043.8 546.6 1043.6 546.3 1043.6 546.3 1043.6 546.3L1021.9 520.7 1022.8 511.4 1041.3 502.7 1048.7 508.1 1054.8 541C1054.8 541.9 1056 542.6 1056.9 542.7 1058.2 542.5 1058.9 541.3 1058.8 540L1053.8 511.5 1065.5 519.6 1067.9 532.2C1068.1 533.5 1068.9 534.4 1070 533.9 1071.3 533.7 1072 532.5 1072 531.6L1070.3 523.1 1078.9 529.3C1080 529.6 1081.2 529.5 1082.1 528.6 1082.3 528.1 1082.4 527.2 1082 526.5 1081.8 526.1 1081.8 526.1 1081.3 525.9L1072.7 519.8 1081.2 518C1082.4 517.9 1082.8 516.8 1082.8 515.9 1082.6 515.6 1082.6 515.6 1082.5 515.2 1082.1 514.5 1081.4 513.9 1080.5 513.9L1068 516.3 1056.2 508.1 1084.7 503.1C1085.8 502.6 1086.7 501.7 1086.2 500.6 1086.4 500.1 1086.4 500.1 1086.3 499.7 1085.9 499 1084.9 498.6 1084 498.6L1051.1 504.8 1043.7 499.4 1045.3 479.2 1053.6 475.3 1085 486.6C1086 487 1087.5 486.3 1087.9 485.3S1087.6 482.8 1086.5 482.4L1059 472.8 1072.1 466.6 1084.1 470.7C1085.2 471.1 1086.3 470.6 1086.7 469.5 1087 468.4 1086.5 467.4 1085.5 467L1077.5 464.1 1087.3 459.5C1088 459.2 1088.7 457.9 1088.2 456.8 1087.7 455.8 1086.1 455.2 1085.4 455.5L1075.6 460.1 1078.5 452.1C1078.7 451.6 1078.9 451.1 1078.7 450.7 1078.4 450 1077.8 449.8 1077.3 449.6 1076.2 449.2 1075.2 449.7 1074.8 450.8L1070.2 462.7 1057.1 468.8 1067.3 441.5C1067.5 440.9 1067.3 440.6 1067 439.8 1066.8 439.5 1066.7 439.1 1066.1 438.9 1065.1 438.5 1063.6 439.2 1063.2 440.3L1051.7 471.3 1043.4 475.2 1027 463.9 1027.4 454.4 1053.2 433.1C1053.8 432.4 1054.1 431.3 1053.8 430.6 1053.6 430.2 1053.6 430.2 1053.3 430.4 1052.8 429.3 1051.3 429.1 1050.4 430L1028.3 448.7 1029.4 434.1 1039.2 425.9C1039.8 425.2 1039.8 424.3 1039.5 423.6 1039.5 423.6 1039.3 423.2 1039.3 423.2 1038.8 422.1 1037.4 421.9 1036.5 422.8L1029.9 428.5 1030.7 418C1030.9 417.5 1030.7 417.1 1030.5 416.8 1030.2 416 1029.5 415.5 1029.1 415.6 1027.7 415.4 1026.8 416.3 1026.4 417.4L1025.6 427.9 1020.4 421.5C1019.5 420.6 1018.1 420.4 1017.2 421.3 1016.6 422 1016.4 423.4 1017.1 423.9L1025.3 433.8 1024 448.1 1005.2 426C1004.4 425.1 1003.1 425.2 1002 425.7 1001.5 426.4 1001.3 427.8 1002.1 428.8ZM1008.3 474.9L1022.4 468.3 1024.6 467.2 1026.6 468.5 1039 477.3 1041.1 478.9 1040.9 481.3 1039.6 496.4 1039.4 498.8 1037.2 499.8 1023.1 506.4 1020.9 507.4 1019 506.1 1006.5 497.4 1004.6 496.1 1004.6 493.4 1005.9 478.2 1006.2 475.9 1008.3 474.9Z" fill="rgba(51, 121, 194, 0.58)"></path><path d="M631.5 271.2L625.9 246.3 631.1 238.6 632.9 247C632.9 247.9 633.8 248.3 634.8 248.3 635.4 248 636.1 247.1 635.8 246.5L633.5 234.8 638.3 227 642.4 235.2 638.7 246.6C638.7 246.6 638.7 246.9 638.7 246.9 638.7 247.5 639.3 248.2 639.9 248.6 640.9 248.6 641.5 248.3 641.9 247.4L644.5 239.2 648.6 247.3 641.1 271.7C641.1 271.7 640.8 272 640.8 272 640.7 272.6 641.4 273.3 642 273.6 642.9 274 643.9 273.4 644 272.4L650.7 251.3 656 261.1 653 270.6C653 270.6 653 270.6 653 270.9 653 271.6 653.3 272.2 653.9 272.6 654.8 272.6 655.8 272.3 656.2 271.4L658.1 265.1 661.9 272.3C662.2 273.3 663.1 273.3 663.8 273 664.8 272.7 665.1 271.8 664.5 270.8L661 263.6 667 265.8C668 265.8 668.9 265.6 669 264.6 669.3 263.7 669 263 668.1 262.6L658.6 259.7 653.6 249.8 675.1 256.6C675.7 256.9 676.7 256.3 677.1 255.4 677.1 254.7 676.8 253.7 675.9 253.4L651.6 245.9 647.4 237.7 655.7 240.3C656.6 240.7 657.3 240.1 657.6 239.1 658 238.5 657.4 237.5 656.8 237.1L645.4 233.7 640.9 225.5 650.2 226 658.2 234.6C658.8 235.3 659.7 235.4 660.4 234.7 661 234.5 661.1 233.2 660.5 232.5L654.7 226.2 664 226.6 681 245.6C681.7 246.3 682.6 246.3 683.3 245.7 683.9 245.1 684 244.1 683.4 243.5L668.4 226.8 679.3 227.3 686 234.6C686.6 235.3 687.6 235.3 688.3 234.7 688.9 234.1 689 233.2 688.4 232.5L684.1 227.5 692.1 227.8C693.1 227.9 693.7 227.3 693.8 226.3 693.8 225.4 693.2 224.7 692.2 224.6L684.2 224.3 688.9 220C689.6 219.4 689.6 218.4 689 217.8S687.5 217.1 686.8 217.7L679.8 224.1 668.6 223.6 685 208.6C685.6 208 685.7 207.1 685.1 206.4 684.4 205.7 683.5 205.7 682.8 206.3L664.1 223.4 654.8 223 661.2 217.2C661.8 216.6 661.9 215.6 661.3 214.9 660.7 214.3 659.7 214.2 659 214.8L650.4 222.8 641.4 222.4 646.2 214.9 657.9 212.2C658.5 211.9 659.2 211 658.9 210.3 658.7 209.4 658 209 657.1 209L648.7 210.8 653.5 203.4 678.4 197.8C679.4 197.5 679.7 196.9 679.8 195.9 679.5 194.9 678.5 194.6 677.9 194.5L655.9 199.3 662.1 190 671.5 187.8C672.4 187.9 672.8 186.9 672.8 186 672.5 185.3 671.6 184.6 670.6 184.9L664.5 186.2 668.6 179.4C669.3 178.8 669 177.8 668.1 177.1 667.5 176.8 666.5 177 666.2 177.7L661.7 184.5 660.4 178C660.1 177.1 659.2 176.7 658.5 177 657.5 177 657.2 177.6 657.2 178.2 657.2 178.5 657.2 178.5 657.1 178.9L659.3 188.2 653.1 197.6 648.3 175.9C648.3 174.9 647.4 174.6 646.4 174.5 645.8 174.8 645.4 175.5 645.4 176.1 645.4 176.4 645.4 176.4 645.4 176.4L650.7 201.6 645.8 209.1 644 200.7C643.7 199.7 643.1 199.4 642.1 199.3 641.5 199.6 640.8 200.2 640.8 200.9 640.8 201.2 640.8 201.2 640.7 201.5L643.4 213.2 638.6 220.6 634.5 212.8 637.9 201.4C638.2 200.4 637.6 199.4 637 199.1 636.1 199.1 635.1 199.3 635 200.3L632.4 208.5 628 200.6 635.8 176C636.2 175.4 635.6 174.4 634.9 174 634 174 633 174.3 632.6 175.2L625.9 196.4 620.9 186.5 623.9 177.4C624.3 176.4 623.7 175.4 622.7 175.4 622.1 175 621.1 175.3 620.7 176.3L618.9 182.6 615 175.4C614.7 174.7 613.8 174.3 612.8 174.6 612.5 174.9 612.1 175.6 612.1 176.2 612.1 176.2 612.1 176.5 612.1 176.8L615.9 184.1 609.6 182.2C609 181.8 608 182.4 607.6 183 607.6 183.4 607.6 183.4 607.6 183.4 607.6 184.3 608.2 185 608.8 185L618 188 623.3 197.8 601.8 191.1C600.9 191.1 600.2 191.4 599.8 192.3 599.8 192.3 599.8 192.6 599.8 192.6 599.8 193.3 600.1 193.9 601 194.3L625.3 202.1 629.5 210 621.3 207.4C620.3 207.3 619.3 207.6 619.3 208.5 619 208.5 619 208.9 619 208.9 618.9 209.5 619.5 210.2 620.2 210.5L631.5 213.9 635.7 222.1 626.7 221.7 618.8 213C618.2 212.3 616.9 212.3 616.2 212.9 615.9 213.5 615.8 214.5 616.1 215.1L622.2 221.5 613 221.1 595.9 202.4C595.3 201.7 594.3 201.7 593.6 202.3 593 202.9 592.9 203.8 593.5 204.5L608.5 220.9 597.3 220.4 590.9 213.4C590.3 212.7 589.3 212.6 588.6 213.3S587.9 214.8 588.5 215.5L592.8 220.2 584.8 219.8C583.9 219.8 583.2 220.4 583.2 221.3 583.1 222.3 583.7 223 584.7 223L592.7 223.4 588 228C587.6 228.3 587.3 228.6 587.3 228.9 587.3 229.2 587.6 229.9 587.9 230.2 588.5 230.9 589.5 230.9 590.1 230.3L597.1 223.6 608.3 224.1 592 239.4C591.6 239.7 591.3 240 591.3 240.3 591.3 240.6 591.5 241.3 591.9 241.6 592.5 242.3 593.4 242.3 594.1 241.7L612.8 224.3 622.1 224.7 615.4 230.5C615.1 230.8 615.1 231.4 615 231.7 615 232.1 615 232.4 615.3 232.7 615.9 233.4 617.2 233.4 617.6 232.8L626.6 224.9 635.5 225.3 630.7 233.1 619 235.4C618.4 235.7 617.7 236.3 617.7 237 617.7 237.3 617.7 237.3 618 237.3 617.9 238.3 618.9 239 619.9 238.7L628.3 236.8 623.4 244.6 598.2 249.9C597.6 250.2 597.2 250.8 597.2 251.4 597.2 251.8 597.2 251.8 597.2 251.8 597.4 252.7 598 253.4 599 253.1L621 248.3 614.8 257.7 605.4 259.8C604.5 260.1 604.1 260.7 604.1 261.4 604.1 261.4 604.1 261.7 604.1 261.7 604.4 262.7 605.3 263 605.9 263L612.4 261.4 607.9 268.3C607.9 268.6 607.9 268.9 607.9 269.2 607.9 269.5 608.2 270.2 608.5 270.5 609.4 270.9 610.4 270.9 610.8 270L615.2 263.1 616.5 269.6C616.8 270.6 617.8 270.9 618.4 271 619.4 270.7 619.7 269.8 619.8 268.8L617.6 259.4 623.5 250.1 628.3 271.7C628.6 272.7 629.5 273.4 630.2 273.1 631.1 272.8 631.8 272.2 631.5 271.2Z" fill="rgba(51, 121, 194, 0.58)"></path><path d="M843.6 460.3L819.7 469.3 811.2 465.2 819.3 462.2C820.3 462.1 820.5 461.2 820.4 460.2 820 459.6 819 459 818.4 459.4L807.2 463.4 798.8 459.6 806.4 454.4 818.1 456.6C818.1 456.6 818.5 456.5 818.5 456.5 819.1 456.5 819.7 455.8 819.9 455.1 819.9 454.1 819.5 453.5 818.5 453.3L810 451.8 817.5 446.6 842.7 450.7C842.7 450.7 843 451 843 451 843.7 451 844.2 450.3 844.5 449.6 844.7 448.6 844 447.7 843 447.8L821.2 444.1 830.2 437.4 840 439.1C840 439.1 840 439.1 840.3 439.1 840.9 439 841.5 438.6 841.8 438 841.7 437 841.3 436.1 840.3 435.9L833.8 434.9 840.4 430.1C841.4 429.7 841.3 428.7 840.9 428.1 840.5 427.2 839.5 426.9 838.6 427.7L831.9 432.1 833.3 425.9C833.2 424.9 832.8 424 831.8 424.1 830.9 423.9 830.3 424.3 830 425.2L828.4 435 819.3 441.3 823 419.1C823.3 418.5 822.6 417.6 821.6 417.3 820.9 417.4 820 417.8 819.8 418.8L815.7 443.9 808.1 449.1 809.6 440.6C809.8 439.7 809.1 439.1 808.1 438.8 807.5 438.6 806.6 439.3 806.3 440L804.5 451.7 797 457.2 796.1 448 803.7 438.9C804.2 438.2 804.1 437.3 803.4 436.7 803.1 436.1 801.8 436.2 801.2 436.9L795.7 443.5 794.9 434.3 811.4 414.8C811.9 414.1 811.9 413.1 811.2 412.5 810.5 412 809.5 412 808.9 412.7L794.5 429.8 793.4 419 799.8 411.3C800.4 410.6 800.3 409.7 799.6 409.1 798.9 408.5 797.9 408.6 797.4 409.3L793 414.2 792.3 406.3C792.2 405.3 791.5 404.7 790.5 404.8 789.6 404.9 789 405.6 789.1 406.6L789.8 414.5 784.9 410.5C784.2 409.9 783.3 410 782.7 410.7S782.2 412.3 782.9 412.9L790.2 419 791.3 430.1 774.2 416C773.5 415.4 772.6 415.5 772 416.2 771.4 416.9 771.5 417.8 772.2 418.4L791.7 434.6 792.5 443.8 785.9 438.3C785.2 437.8 784.3 437.8 783.7 438.5 783.1 439.2 783.2 440.2 783.9 440.8L793 448.3 793.8 457.2 785.7 453.5 781.5 442.3C781.1 441.7 780.1 441.1 779.5 441.5 778.5 441.9 778.3 442.6 778.4 443.5L781.4 451.6 773.3 447.9 764.3 424C763.9 423 763.3 422.8 762.3 422.9 761.4 423.3 761.2 424.3 761.2 424.9L769 446 758.9 441.2 755.5 432.2C755.4 431.2 754.4 431 753.4 431.1 752.8 431.5 752.3 432.5 752.7 433.4L754.8 439.3 747.5 436.1C746.8 435.5 745.9 436 745.3 437 745 437.6 745.5 438.6 746.1 438.8L753.5 442.3 747.3 444.5C746.4 444.9 746.1 445.9 746.5 446.5 746.6 447.5 747.3 447.7 747.9 447.7 748.2 447.6 748.2 447.6 748.5 447.6L757.5 444.2 767.6 449 746.8 456.8C745.9 456.8 745.6 457.8 745.7 458.8 746.1 459.4 746.8 459.7 747.4 459.6 747.7 459.6 747.7 459.6 747.7 459.6L772 450.9 780 454.6 772 457.6C771 458 770.8 458.7 770.9 459.7 771.2 460.3 771.9 460.8 772.6 460.8 772.9 460.8 772.9 460.8 773.2 460.7L784.4 456.5 792.5 460.2 785.2 465.4 773.5 463.6C772.5 463.4 771.6 464.1 771.3 464.8 771.4 465.7 771.8 466.6 772.8 466.6L781.3 468 774.1 473.5 748.6 469.1C747.9 468.9 747 469.6 746.8 470.3 746.9 471.2 747.3 472.1 748.3 472.4L770.2 476.1 761.1 482.4 751.6 480.7C750.6 480.5 749.7 481.2 749.8 482.2 749.6 482.9 750 483.8 751 484L757.5 485 750.9 489.8C750.2 490.2 750 491.2 750.4 492.1 750.8 492.4 751.4 492.6 752.1 492.6 752.1 492.6 752.4 492.6 752.7 492.5L759.3 487.7 758.3 494.3C758.1 494.9 758.8 495.8 759.5 496.1 759.8 496 759.8 496 759.8 496 760.7 496 761.3 495.3 761.3 494.6L763 485.1 772 478.5 768.3 500.7C768.3 501.7 768.7 502.3 769.7 502.5 769.7 502.5 770 502.5 770 502.5 770.7 502.4 771.3 502 771.5 501.1L775.9 475.9 783.1 470.7 781.7 479.2C781.8 480.2 782.2 481.1 783.1 481 783.2 481.3 783.5 481.3 783.5 481.3 784.1 481.2 784.7 480.6 785 479.9L786.8 468.1 794.3 462.9 795.1 471.9 787.6 480.9C787.1 481.6 787.2 482.9 787.9 483.5 788.5 483.7 789.5 483.6 790.1 483.3L795.6 476.3 796.4 485.6 780.2 505.1C779.7 505.8 779.7 506.7 780.4 507.3 781.1 507.9 782.1 507.8 782.7 507.1L796.8 490 797.9 501.2 791.8 508.5C791.2 509.2 791.3 510.1 792 510.7S793.7 511.2 794.2 510.5L798.3 505.6 799 513.6C799.1 514.6 799.8 515.1 800.8 515.1 801.7 515 802.3 514.3 802.2 513.3L801.5 505.3 806.7 509.4C807 509.7 807.4 509.9 807.7 509.9 808 509.9 808.6 509.5 808.9 509.2 809.5 508.5 809.4 507.5 808.7 506.9L801.1 500.9 800 489.7 817.4 503.9C817.8 504.2 818.1 504.4 818.4 504.4 818.7 504.4 819.3 504 819.6 503.7 820.2 503 820.1 502 819.4 501.4L799.6 485.3 798.7 476 805.4 481.8C805.7 482.1 806.4 482.1 806.7 482 807 482 807.3 482 807.6 481.6 808.2 480.9 808.1 479.7 807.4 479.4L798.3 471.6 797.5 462.7 805.9 466.4 809.8 477.6C810.2 478.2 810.9 478.8 811.5 478.7 811.8 478.7 811.8 478.7 811.8 478.4 812.8 478.3 813.3 477.2 812.9 476.3L809.9 468.2 818.3 472 827 496.2C827.4 496.8 828 497.1 828.7 497 829 497 829 497 829 497 829.9 496.6 830.5 495.9 830.1 495L822.3 473.8 832.4 478.7 835.8 487.7C836.2 488.6 836.9 488.9 837.5 488.8 837.5 488.8 837.9 488.8 837.9 488.8 838.8 488.4 839 487.4 839 486.8L836.4 480.6 843.8 484.1C844.2 484 844.5 484 844.8 484 845.1 483.9 845.7 483.6 846 483.2 846.2 482.2 846.2 481.3 845.2 481L837.8 477.5 844 475.4C844.9 475 845.2 474 845.1 473.3 844.7 472.4 843.7 472.2 842.7 472.3L833.7 475.7 823.7 471.1 844.5 463.4C845.4 463 846 462 845.6 461.4 845.2 460.5 844.5 459.9 843.6 460.3Z" fill="rgba(51, 121, 194, 0.58)"></path></g><defs><mask id="SvgjsMask1000"><rect width="1440" height="560" fill="#ffffff"></rect></mask><filter id="SvgjsFilter1001"><feGaussianBlur stdDeviation="1"></feGaussianBlur></filter></defs></svg>